<svg width="312" height="64" viewBox="0 0 312 64" fill="none" xmlns="http://www.w3.org/2000/svg">
<path d="M155.153 23.7631C153.728 20.0844 150.453 15.3064 147.319 18.1253C145.368 19.9576 146.365 24.2 147.319 26.1873C149.068 30.0255 151.934 33.2597 155.551 35.4756C155.696 35.5441 155.859 35.5635 156.016 35.5307C156.173 35.4979 156.314 35.4147 156.418 35.2941C156.522 35.1734 156.583 35.0222 156.591 34.8638C156.599 34.7054 156.554 34.5489 156.463 34.4185C159.311 30.9371 169.281 24.1577 164.78 19.1542C161.618 15.7011 156.933 19.9294 155.153 23.7631ZM164.054 23.5235C163.513 25.9618 160.508 28.3015 158.813 30.0069C157.545 31.163 156.351 32.3964 155.238 33.6997C151.35 31.1204 147.704 26.2296 147.676 21.6771C147.676 18.3508 149.869 18.6186 151.706 20.4791C153.288 22.1042 154.236 24.2316 154.384 26.4833C154.384 26.6702 154.459 26.8495 154.592 26.9816C154.726 27.1138 154.907 27.188 155.096 27.188C155.284 27.188 155.466 27.1138 155.599 26.9816C155.733 26.8495 155.808 26.6702 155.808 26.4833C155.861 25.2873 156.209 24.1224 156.823 23.0905C157.436 22.0586 158.295 21.191 159.326 20.5636C162.231 18.5622 164.851 19.9576 164.054 23.5235Z" fill="black"/>
<path d="M135.798 14.6864C137.065 11.6984 136.951 8.1607 132.721 7.75196C129.631 7.47007 125.985 8.93589 125.159 11.9803C124.174 11.3186 122.996 10.9985 121.808 11.0699C120.62 11.1413 119.49 11.6002 118.593 12.3749C114.947 15.4193 116.5 19.7604 119.006 22.9739C116.927 24.8767 115.788 27.7942 118.009 30.2185C119.095 31.4042 120.583 32.153 122.191 32.3219C123.799 32.4909 125.413 32.0683 126.726 31.1346C127.851 38.647 138.447 35.1093 136.538 28.6117C144.984 29.2178 144.03 13.277 135.798 14.6864ZM135.684 27.0613C135.573 27.0267 135.453 27.0267 135.342 27.0613C135.225 27.0763 135.114 27.1221 135.022 27.1941C134.929 27.266 134.858 27.3613 134.815 27.4701C134.809 27.5027 134.809 27.5361 134.815 27.5687C134.808 27.6013 134.808 27.6349 134.815 27.6674C134.808 27.7189 134.808 27.771 134.815 27.8224C134.826 27.9252 134.855 28.0252 134.9 28.1184C137.749 33.6434 128.178 37.3221 128.136 29.8802C128.133 29.7411 128.089 29.6059 128.01 29.4909C127.931 29.3759 127.819 29.2861 127.69 29.2324C127.56 29.1787 127.418 29.1634 127.279 29.1883C127.141 29.2132 127.013 29.2773 126.911 29.3728C126.054 30.186 124.962 30.7142 123.788 30.8835C122.613 31.0528 121.415 30.8548 120.359 30.3172C117.354 28.7386 118.123 25.4123 120.359 23.6787C120.452 23.6239 120.531 23.5491 120.59 23.4598C120.649 23.3705 120.687 23.2691 120.701 23.1632C120.714 23.0574 120.704 22.9498 120.669 22.8486C120.635 22.7475 120.577 22.6554 120.502 22.5793C118.508 20.2255 116.585 16.9415 118.85 14.1226C120.274 12.2622 123.55 11.783 125.102 13.7985C125.182 13.9318 125.304 14.0353 125.449 14.093C125.595 14.1507 125.755 14.1593 125.906 14.1176C126.057 14.0759 126.19 13.9861 126.284 13.8621C126.378 13.7382 126.428 13.587 126.426 13.432C126.313 7.83653 138.959 7.04724 133.875 15.5039C133.576 15.9972 134.089 16.7865 134.687 16.5469C142.662 13.277 143.446 28.8795 135.684 27.0613Z" fill="black"/>
<path d="M115.36 19.1825C114.534 9.47146 105.818 1.04299 96.0909 0C95.6921 0 95.4073 0.352361 95.3788 0.704722C94.8661 9.24595 102.03 15.8703 109.82 18.7738C108.054 18.7738 106.302 18.957 104.551 19.1825C98.6118 9.31642 88.0442 6.31431 77.733 2.57928C77.6113 2.5471 77.4832 2.54742 77.3618 2.58019C77.2403 2.61297 77.1298 2.67703 77.0415 2.76585C76.9531 2.85467 76.8902 2.96508 76.8591 3.08581C76.8279 3.20655 76.8297 3.3333 76.8642 3.45314C80.1968 12.2622 88.8417 19.7322 98.4409 20.5779C95.1234 22.0225 91.9359 23.7435 88.9129 25.7223C84.3555 28.3862 79.4562 30.5849 74.087 30.7541C68.7178 30.9232 64.787 27.2163 60.2153 25.1163C56.8271 23.4477 53.1042 22.5519 49.3201 22.4947C51.5419 18.3369 48.5511 14.5595 45.3751 11.8816C45.2854 11.7969 45.1754 11.7363 45.0553 11.7056C44.9353 11.6748 44.8094 11.675 44.6894 11.7061C44.5695 11.7372 44.4596 11.7981 44.3703 11.8831C44.2809 11.9681 44.2149 12.0743 44.1788 12.1917C43.7691 13.4274 43.616 14.7324 43.7286 16.0281C43.8412 17.3239 44.2171 18.5838 44.8339 19.7322C45.3975 20.9182 46.3178 21.9027 47.4687 22.5511C45.5256 22.7615 43.6407 23.3354 41.9143 24.2424C41.2974 24.5655 40.7111 24.9429 40.1625 25.37C33.8676 21.753 26.5517 20.2683 19.3264 21.1416C14.9114 21.8041 9.77003 25.7646 9.25731 30.4158C6.8799 30.3741 4.56081 31.1458 2.69174 32.6004C1.05642 34.2081 0.0950238 36.3677 0 38.6469C0 38.8338 0.0750247 39.0131 0.20857 39.1452C0.342114 39.2774 0.52324 39.3517 0.712101 39.3517C4.41503 38.9006 8.54521 37.4912 9.96942 34.2213C10.0014 34.3084 10.0395 34.3931 10.0834 34.475C10.887 35.8161 12.0004 36.9496 13.3323 37.7826C14.6642 38.6156 16.1766 39.1243 17.7456 39.2671L17.9165 39.5913C19.4202 41.9379 20.6211 44.4617 21.4912 47.1036C22.266 49.7001 22.325 52.4544 21.6621 55.081C21.5457 55.5495 21.3294 55.9879 21.0277 56.3668C20.7261 56.7457 20.346 57.0564 19.913 57.278C19.48 57.4996 19.0041 57.627 18.5173 57.6516C18.0305 57.6762 17.544 57.5975 17.0904 57.4207C15.6662 56.7865 14.0141 53.7703 16.9195 53.4461C17.8168 53.3474 17.831 51.9239 16.9195 52.0366C12.7466 52.5018 13.5299 56.7865 16.3641 58.6469C17.1266 59.0637 18.0015 59.2347 18.8669 59.1362C19.7323 59.0377 20.5451 58.6745 21.1921 58.0973C23.4424 56.0677 23.6845 53.277 23.4851 50.3876C23.2803 47.6123 22.5458 44.9006 21.3203 42.3961C20.7791 41.2685 20.067 40.2678 19.4546 39.2389C20.5248 39.1104 21.5313 38.6668 22.3439 37.9657C23.1564 37.2646 23.7376 36.3382 24.0121 35.3066C24.7669 32.9669 24.8238 29.6688 21.7476 29.1896C18.6713 28.7104 17.0904 31.8816 16.6347 34.2354C16.4513 35.4543 16.5987 36.6996 17.0619 37.8436C16.5791 37.7738 16.1028 37.6653 15.6377 37.5194C11.1942 36.2086 9.94093 31.797 11.7069 27.9211C14.4699 21.6913 22.7872 21.79 28.484 22.8471C32.1363 23.5002 35.6511 24.7582 38.8807 26.568C36.4453 29.0204 34.4942 32.6004 35.9184 35.5039C38.4535 40.7329 49.548 38.957 46.6853 32.4172C45.5268 29.9365 43.7107 27.8129 41.43 26.272C43.8035 24.641 46.63 23.7791 49.5195 23.8055C54.7321 23.8055 59.8877 26.1311 64.1746 28.8231C66.8157 30.589 69.8607 31.6742 73.0331 31.9803C69.672 34.7992 69.4868 41.1417 71.8795 44.5525C71.9348 44.6441 72.0104 44.7222 72.1006 44.7807C72.1908 44.8392 72.2933 44.8766 72.4003 44.8902C72.5073 44.9037 72.616 44.8931 72.7182 44.859C72.8204 44.8249 72.9135 44.7683 72.9904 44.6934C76.1378 40.9866 78.8153 36.561 76.6933 31.9098C77.3627 31.9098 78.032 31.7266 78.7441 31.5856C84.4409 30.4158 89.6678 26.9767 94.5385 23.9464C97.2106 22.3335 100.177 21.2559 103.269 20.7752C97.8427 23.4531 93.9404 28.7104 91.8753 34.8696C91.8438 34.9739 91.8377 35.0841 91.8575 35.1911C91.8772 35.2982 91.9223 35.3991 91.9889 35.4857C92.0555 35.5722 92.1419 35.642 92.241 35.6892C92.34 35.7365 92.449 35.7599 92.5589 35.7576C97.33 35.2643 102.058 34.3481 106.103 31.6702C110.148 28.9922 112.298 24.5525 113.48 20.0141H114.734C114.824 20.0031 114.911 19.9743 114.99 19.9295C115.073 19.8823 115.142 19.8143 115.189 19.7322C115.231 19.6942 115.26 19.6453 115.275 19.5913C115.295 19.5079 115.295 19.421 115.275 19.3376C115.275 19.3376 115.275 19.2671 115.275 19.2389C115.307 19.2254 115.336 19.2063 115.36 19.1825ZM1.59511 37.8154C1.77277 36.6396 2.26161 35.5314 3.01202 34.6031C3.76242 33.6748 4.74766 32.9596 5.86771 32.5299C5.18875 32.9401 4.54985 33.412 3.95928 33.9394C3.28991 34.5595 4.30109 35.5603 4.97047 34.9401C6.19696 33.9497 7.53511 33.1032 8.95823 32.4172C8.43128 35.7999 4.92774 37.2657 1.59511 37.8154ZM22.9581 31.7266C23.7984 33.7562 22.2033 36.3354 20.5228 37.3643C19.9882 37.6896 19.3825 37.8829 18.7567 37.9281C18.3966 37.1802 18.1563 36.3813 18.0446 35.5603C17.7598 33.587 21.2633 27.766 22.9012 31.7266H22.9581ZM44.3212 31.1205C47.8674 35.6589 42.897 38.7597 38.6244 36.4623C36.1463 35.0529 36.8726 32.234 37.955 30.2185C38.5252 29.1776 39.2501 28.2274 40.1055 27.3996C41.6971 28.4108 43.1154 29.6669 44.3069 31.1205H44.3212ZM45.9875 17.618C46.6535 18.7465 47.2297 19.9246 47.7108 21.1416C46.9164 20.4567 46.2801 19.6107 45.8451 18.661C45.08 17.1077 44.874 15.3425 45.2611 13.6575C47.0984 15.3347 48.8217 17.4348 48.6792 19.7886C48.2377 18.802 47.6823 17.8436 47.255 16.9697C46.8278 16.0958 45.5745 16.8147 45.9732 17.618H45.9875ZM72.6343 42.9598C71.0819 39.7463 71.4237 34.5032 74.6709 32.6004C74.1285 35.0662 73.3708 37.4807 72.4064 39.8168C72.0504 40.6624 73.4319 41.0148 73.8306 40.1973C74.6922 38.1023 75.3875 35.944 75.91 33.7421C76.6648 37.0825 74.7991 40.2396 72.6343 42.9598ZM78.8296 4.46794C87.1184 7.41367 95.507 10.1057 101.118 16.8006C97.1733 14.5173 92.7583 13.0514 89.0126 10.4158C88.2578 9.89429 87.5884 11.1205 88.2863 11.642C92.5589 14.6582 97.8569 16.0958 102.172 19.1261C92.331 20.296 82.7889 13.1642 78.8296 4.46794ZM104.75 31.0078C101.353 32.9717 97.5393 34.125 93.6128 34.3763C96.1906 27.47 101.161 22.0155 108.211 20.6906C105.362 22.537 103.269 25.4968 100.705 27.907C100.036 28.5412 101.047 29.5278 101.702 28.9077C104.85 25.9479 107.399 21.5927 111.871 20.5779C110.866 24.7994 108.333 28.51 104.75 31.0078ZM104.75 7.51233C104.652 7.35505 104.496 7.24215 104.314 7.19796C104.133 7.15378 103.941 7.18183 103.781 7.27609C103.62 7.37035 103.503 7.52326 103.456 7.7019C103.408 7.88053 103.433 8.0706 103.525 8.23115C105.697 11.9165 108.474 15.2176 111.743 17.9986C104.195 15.5884 96.8457 9.58421 96.8457 1.5222C100.985 2.24832 104.809 4.18854 107.821 7.09126C110.833 9.99397 112.894 13.7253 113.737 17.8013C110.111 14.925 107.05 11.4135 104.707 7.44186L104.75 7.51233Z" fill="black"/>
<path d="M140.996 30.9089C140.512 31.6841 140.668 32.9244 141.722 33.0936C141.965 33.154 142.218 33.1613 142.464 33.1151C142.71 33.0688 142.943 32.9701 143.147 32.8258C144.784 31.2049 142.078 29.1471 140.996 30.9089Z" fill="black"/>
<path d="M146.55 33.5589C145.041 33.4461 144.129 35.9268 145.639 36.5469C145.921 36.691 146.245 36.7373 146.557 36.6785C146.869 36.6198 147.153 36.4594 147.362 36.2227C148.117 35.363 147.875 33.6435 146.55 33.5589Z" fill="black"/>
<path d="M140.825 35.9407C139.728 36.8145 140.611 37.928 141.751 37.9703C142.89 38.0126 143.417 37.3924 143.175 36.3635C142.933 35.3346 141.637 35.3064 140.825 35.9407Z" fill="black"/>
<path d="M63.2061 23.4955C64.1603 21.5645 60.7707 20.4088 60.614 22.4666C60.5144 23.7774 62.494 24.9331 63.2061 23.4955Z" fill="black"/>
<path d="M59.6171 20.2959C59.5638 20.1389 59.4748 19.9961 59.3571 19.8783C59.2394 19.7606 59.096 19.6711 58.9379 19.6166C58.7798 19.5622 58.6112 19.5443 58.445 19.5644C58.2789 19.5844 58.1196 19.6418 57.9793 19.7322C57.7686 19.8316 57.5979 19.9982 57.4946 20.2053C57.3912 20.4124 57.3613 20.6479 57.4096 20.8738C57.4286 21.0365 57.4827 21.1932 57.5682 21.3333C57.6538 21.4735 57.7688 21.5937 57.9055 21.686C58.0422 21.7783 58.1973 21.8404 58.3604 21.8681C58.5235 21.8958 58.6906 21.8885 58.8506 21.8466C59.0105 21.8047 59.1595 21.7293 59.2874 21.6254C59.4153 21.5215 59.5191 21.3917 59.5918 21.2446C59.6645 21.0975 59.7044 20.9367 59.7088 20.773C59.7132 20.6093 59.6819 20.4466 59.6171 20.2959Z" fill="black"/>
<path d="M34.3233 37.8718C33.0558 37.6745 32.8991 39.5631 33.7821 40.1128C34.0834 40.2235 34.4112 40.2423 34.7234 40.167C35.0356 40.0916 35.3179 39.9255 35.5339 39.69C36.1178 38.9007 35.0924 38.055 34.3233 37.8718Z" fill="black"/>
<path d="M13.0457 21.8464C14.2705 20.3242 10.5961 19.9718 11.4933 21.7618C11.5746 21.8891 11.6855 21.9953 11.8167 22.0715C11.9479 22.1478 12.0956 22.1919 12.2475 22.2002C12.3994 22.2084 12.5511 22.1806 12.69 22.1191C12.8288 22.0576 12.9508 21.964 13.0457 21.8464Z" fill="black"/>
<path d="M9.37125 24.5383C10.6103 24.8625 10.7955 22.9174 9.62761 22.9456C9.43205 22.947 9.24333 23.017 9.09502 23.1431C8.9467 23.2692 8.84842 23.4434 8.81766 23.6345C8.7869 23.8256 8.82565 24.0213 8.92702 24.1868C9.02839 24.3523 9.1858 24.4769 9.37125 24.5383Z" fill="black"/>
<path d="M9.96944 20.916C10.3113 20.2818 9.52794 19.3515 8.84432 19.422C8.6877 19.4407 8.53821 19.4976 8.40923 19.5875C8.28025 19.6774 8.17581 19.7975 8.10526 19.9372C8.0347 20.0768 8.00024 20.2316 8.00494 20.3877C8.00965 20.5437 8.05338 20.6962 8.13222 20.8314C8.54524 21.3811 9.61339 21.6348 9.96944 20.916Z" fill="black"/>
<path d="M17.2044 60.902C17.0345 61.0558 16.9106 61.2529 16.8465 61.4717C16.7823 61.6905 16.7803 61.9225 16.8406 62.1424C16.9009 62.3622 17.0213 62.5614 17.1884 62.718C17.3556 62.8747 17.5631 62.9827 17.7883 63.0303C18.6286 63.1149 20.1809 61.8887 19.2125 61.0712C18.9447 60.8255 18.6017 60.6754 18.2378 60.6448C17.874 60.6141 17.5102 60.7047 17.2044 60.902Z" fill="black"/>
<path d="M121.228 8.85131C121.456 8.07612 119.989 7.99155 119.975 8.85131C119.961 9.71107 121.057 9.45737 121.228 8.85131Z" fill="black"/>
<path d="M118.622 10.4721C119.533 9.99285 118.85 8.66797 117.995 9.24584C117.141 9.82372 117.81 10.8949 118.622 10.4721Z" fill="black"/>
<path d="M118.28 7.87882C118.411 7.91889 118.55 7.92301 118.683 7.89074C118.816 7.85846 118.938 7.79101 119.035 7.69559C119.434 7.27276 119.334 6.3989 118.465 6.51166C117.596 6.62442 117.397 7.61103 118.28 7.87882Z" fill="black"/>
<path d="M309.308 32.6286C307.387 31.096 304.965 30.3138 302.501 30.4298C302.354 29.0881 301.931 27.7905 301.257 26.6171C300.583 25.4438 299.674 24.4197 298.584 23.6081C294.311 20.4933 288.828 20.5355 283.858 21.353C279.686 22.0215 275.677 23.4555 272.037 25.5813C270.066 23.9927 267.709 22.943 265.201 22.5369C265.001 22.5369 264.802 22.5369 264.603 22.4665C265.701 21.7763 266.588 20.8014 267.166 19.6476C267.809 18.4928 268.199 17.2174 268.312 15.9039C268.425 14.5904 268.258 13.268 267.821 12.0225C267.785 11.9052 267.719 11.7989 267.63 11.714C267.54 11.629 267.43 11.568 267.311 11.5369C267.191 11.5059 267.065 11.5057 266.945 11.5364C266.825 11.5671 266.715 11.6277 266.625 11.7124C263.463 14.3763 260.487 18.1254 262.651 22.2692C259.203 22.3558 255.81 23.1425 252.682 24.5806C250.484 25.5708 248.377 26.7498 246.387 28.1042C244.527 29.3141 242.435 30.1291 240.241 30.4979C238.047 30.8666 235.799 30.7811 233.64 30.2466C226.648 28.8372 221.335 23.9464 214.998 21.0993C214.556 20.902 214.086 20.747 213.573 20.5637C223.144 19.7603 231.746 12.2339 235.079 3.45309C235.113 3.33325 235.115 3.2065 235.084 3.08577C235.053 2.96503 234.99 2.85463 234.902 2.7658C234.813 2.67698 234.703 2.61292 234.581 2.58014C234.46 2.54737 234.332 2.54705 234.21 2.57923C223.927 6.31426 213.374 9.2459 207.435 19.1261C205.712 18.9006 203.974 18.7878 202.237 18.7315C210.027 15.8139 217.134 9.20362 216.621 0.704673C216.621 0.352312 216.308 -0.0423316 215.909 -4.8307e-05C206.182 1.04294 197.466 9.47141 196.668 19.1825C196.662 19.2151 196.662 19.2485 196.668 19.2811C196.668 19.2811 196.668 19.3516 196.668 19.3798C196.648 19.4632 196.648 19.5501 196.668 19.6335C196.686 19.6861 196.715 19.7342 196.754 19.7744C196.801 19.8565 196.87 19.9246 196.953 19.9718C197.032 20.0166 197.119 20.0453 197.209 20.0563H198.463C199.455 24.6775 202.069 28.8018 205.84 31.6983C209.685 34.5172 214.755 35.3065 219.384 35.7857C219.494 35.788 219.603 35.7646 219.702 35.7174C219.801 35.6701 219.887 35.6004 219.954 35.5138C220.021 35.4272 220.066 35.3263 220.086 35.2193C220.105 35.1122 220.099 35.002 220.068 34.8978C218.003 28.7103 214.143 23.4672 208.745 20.8033C209.899 21.0147 211.053 21.2544 212.192 21.5785C217.333 22.988 221.734 26.8076 226.434 29.1331C229.181 30.534 232.139 31.4859 235.193 31.952C233.071 36.5891 235.748 41.0147 238.896 44.7216C238.973 44.7965 239.066 44.8531 239.168 44.8872C239.27 44.9212 239.379 44.9319 239.486 44.9183C239.593 44.9047 239.695 44.8673 239.785 44.8088C239.876 44.7503 239.951 44.6723 240.007 44.5806C242.356 41.2121 242.228 35.0528 239.01 32.1353C242.841 31.8816 245.931 29.8942 249.193 27.9069C255.573 24.1014 264.375 21.804 270.556 26.4975C269.986 26.878 269.431 27.2868 268.904 27.6955C266.468 29.6124 263.207 33.6575 265.514 36.7582C267.821 39.859 273.433 38.957 275.569 36.1804C277.079 34.193 276.139 31.4587 275.099 29.5278C274.533 28.4951 273.824 27.5462 272.991 26.7089C273.113 26.6203 273.242 26.5402 273.376 26.4693C279.087 23.1636 285.731 21.7882 292.303 22.551C298.897 23.5517 305.235 32.0225 298 36.8005C297.042 37.4383 295.933 37.8173 294.781 37.8999C295.892 34.1508 295.294 29.3164 290.509 29.1895C285.723 29.0627 287.988 36.4622 290.167 38.1959C290.889 38.7476 291.734 39.1198 292.631 39.2811C292.374 39.7463 292.104 40.1832 291.848 40.5778C288.999 45.0599 285.268 57.1811 293.001 59.1402C297.345 60.2395 300.678 52.6849 295.152 52.093C294.24 51.9802 294.254 53.4037 295.152 53.5024C298.798 53.9111 295.465 57.6321 293.727 57.8294C290.765 58.1536 289.982 54.2353 289.896 52.1916C289.877 48.0047 291.166 43.9141 293.585 40.4792C293.79 40.1422 293.975 39.794 294.14 39.4362C295.539 39.3765 296.907 39.0044 298.14 38.3478C299.373 37.6913 300.44 36.7672 301.261 35.6448C301.552 35.2012 301.796 34.7288 301.988 34.2353C303.412 37.5475 307.499 38.9851 311.231 39.4362C311.42 39.4362 311.601 39.3619 311.734 39.2298C311.868 39.0976 311.943 38.9184 311.943 38.7314C311.845 36.4475 310.908 34.2775 309.308 32.6286ZM198.22 17.8012C199.068 13.7155 201.14 9.9773 204.165 7.07361C207.191 4.16991 211.03 2.2354 215.183 1.52215C215.183 9.58416 207.805 15.6166 200.3 17.9281C203.569 15.1471 206.346 11.846 208.517 8.16063C208.61 8.00008 208.635 7.81001 208.587 7.63138C208.539 7.45274 208.423 7.29982 208.262 7.20557C208.101 7.11131 207.91 7.08325 207.728 7.12744C207.547 7.17163 207.391 7.28453 207.293 7.44181C204.954 11.416 201.892 14.9282 198.263 17.8012H198.22ZM218.344 34.3058C214.452 33.9959 210.671 32.8718 207.25 31.0077C203.39 28.6962 201.311 24.7216 200.129 20.5778C204.53 21.5926 207.15 25.9478 210.298 28.9076C210.953 29.5278 211.964 28.5412 211.295 27.9069C208.731 25.4968 206.623 22.5369 203.789 20.6906C210.782 21.945 215.809 27.3995 218.387 34.3058H218.344ZM209.799 19.1261C214.072 16.0958 219.356 14.6582 223.685 11.642C224.426 11.1205 223.685 9.89424 222.959 10.4157C219.213 13.0514 214.798 14.5172 210.853 16.8005C216.464 10.0634 224.853 7.41362 233.142 4.46789C229.211 13.1642 219.669 20.2959 209.828 19.1261H209.799ZM239.408 42.9598C237.201 40.2396 235.335 37.0824 236.175 33.742C236.698 35.944 237.393 38.1023 238.255 40.1973C238.611 41.0147 239.992 40.6624 239.679 39.8167C238.715 37.4806 237.957 35.0661 237.414 32.6004C240.69 34.4608 240.961 39.7463 239.408 42.9598ZM264.802 16.9133C264.318 17.8153 263.762 18.7737 263.378 19.7322C263.235 17.3925 264.944 15.2924 266.767 13.6152C267.124 15.2944 266.93 17.0426 266.212 18.6046C265.793 19.5944 265.132 20.4661 264.289 21.1416C264.773 19.9325 265.354 18.7637 266.027 17.6462C266.454 16.8146 265.215 16.1099 264.802 16.9133ZM274.102 35.8844C273.353 36.5311 272.447 36.9728 271.473 37.1657C270.498 37.3585 269.49 37.2958 268.548 36.9837C262.936 35.4897 268.548 30.0211 271.909 27.4982C272.137 27.7237 272.379 27.9351 272.592 28.1747C274.344 30.1057 276.295 33.587 274.102 35.8844ZM293.386 37.8153C292.42 37.6661 291.517 37.2474 290.783 36.6083C290.049 35.9692 289.514 35.1363 289.241 34.2071C288.33 31.3883 290.665 29.4996 292.873 31.656C294.596 33.3897 294.24 35.7293 293.386 37.8153ZM303.042 32.4171C304.45 33.1059 305.774 33.9524 306.987 34.94C307.656 35.5602 308.667 34.5595 307.998 33.9393C307.407 33.4119 306.768 32.9401 306.09 32.5299C307.21 32.9583 308.196 33.6732 308.947 34.6017C309.698 35.5302 310.186 36.6391 310.362 37.8153C307.072 37.2656 303.569 35.7998 303.042 32.4171Z" fill="black"/>
<path d="M167.258 10.9372C165.507 10.2888 164.752 13.2346 166.788 13.5165C167.023 13.5053 167.252 13.4426 167.459 13.3329C167.666 13.2232 167.845 13.0692 167.985 12.8822C168.626 12.1775 168.056 11.2755 167.258 10.9372Z" fill="black"/>
<path d="M165.663 15.5038C164.78 16.3072 165.663 17.6321 166.603 17.8435C166.888 17.9123 167.189 17.8777 167.45 17.7457C167.712 17.6138 167.916 17.3934 168.027 17.1247C168.711 15.7716 166.632 14.5313 165.663 15.5038Z" fill="black"/>
<path d="M163.783 14.771C164.552 14.1086 164.552 12.8401 163.285 12.8401C162.345 12.8401 161.348 13.4039 161.861 14.4469C161.932 14.6275 162.05 14.7868 162.202 14.9092C162.355 15.0316 162.536 15.1131 162.73 15.1457C162.923 15.1783 163.121 15.1609 163.306 15.0953C163.491 15.0296 163.655 14.918 163.783 14.771Z" fill="black"/>
<path d="M251.386 22.4666C251.215 20.4088 247.84 21.5645 248.794 23.4955C249.506 24.9331 251.486 23.7774 251.386 22.4666Z" fill="black"/>
<path d="M254.59 20.916C254.639 20.6901 254.609 20.4546 254.505 20.2475C254.402 20.0404 254.231 19.8738 254.021 19.7744C253.883 19.6832 253.727 19.6239 253.563 19.6011C253.399 19.5783 253.232 19.5926 253.074 19.6427C252.917 19.6929 252.773 19.7777 252.653 19.8908C252.533 20.004 252.441 20.1424 252.383 20.2959C252.323 20.4443 252.295 20.6036 252.301 20.7635C252.307 20.9233 252.347 21.08 252.419 21.2235C252.49 21.3671 252.591 21.4942 252.715 21.5966C252.839 21.6991 252.983 21.7746 253.139 21.8182C253.294 21.8619 253.457 21.8728 253.617 21.8501C253.777 21.8275 253.931 21.7718 254.068 21.6868C254.204 21.6017 254.322 21.4891 254.412 21.3564C254.502 21.2236 254.563 21.0736 254.59 20.916Z" fill="black"/>
<path d="M277.719 37.8718C276.95 37.9987 275.925 38.9007 276.509 39.69C276.725 39.9255 277.007 40.0916 277.319 40.167C277.632 40.2423 277.959 40.2235 278.261 40.1128C279.144 39.5631 278.944 37.6745 277.719 37.8718Z" fill="black"/>
<path d="M300.507 21.7618C301.404 19.9718 297.73 20.3523 298.954 21.8463C299.049 21.964 299.171 22.0575 299.31 22.1191C299.449 22.1806 299.601 22.2084 299.753 22.2001C299.904 22.1918 300.052 22.1477 300.183 22.0715C300.315 21.9952 300.425 21.889 300.507 21.7618Z" fill="black"/>
<path d="M302.629 24.5383C302.814 24.4769 302.972 24.3523 303.073 24.1868C303.174 24.0213 303.213 23.8256 303.182 23.6345C303.152 23.4434 303.053 23.2692 302.905 23.1431C302.757 23.017 302.568 22.947 302.372 22.9456C301.205 22.9174 301.39 24.8625 302.629 24.5383Z" fill="black"/>
<path d="M303.854 20.8457C303.932 20.7105 303.976 20.558 303.981 20.402C303.986 20.2459 303.951 20.0911 303.88 19.9515C303.81 19.8118 303.706 19.6917 303.577 19.6018C303.448 19.5119 303.298 19.455 303.141 19.4363C302.458 19.4363 301.717 20.296 302.016 20.9303C302.315 21.5645 303.455 21.3813 303.854 20.8457Z" fill="black"/>
<path d="M292.745 61.0712C291.819 61.8887 293.371 63.1149 294.169 63.0303C294.394 62.9827 294.602 62.8747 294.769 62.718C294.936 62.5614 295.056 62.3622 295.117 62.1424C295.177 61.9225 295.175 61.6905 295.111 61.4717C295.047 61.2529 294.923 61.0558 294.753 60.902C294.447 60.7047 294.083 60.6141 293.719 60.6448C293.356 60.6754 293.013 60.8255 292.745 61.0712Z" fill="black"/>
<path d="M174.707 35.2361C174.479 36.2227 176.231 36.5328 176.131 35.5603C176.031 34.5877 174.921 34.334 174.707 35.2361Z" fill="black"/>
<path d="M172.499 34.2072C173.34 35.1233 174.522 33.7561 173.582 32.9387C172.642 32.1212 171.816 33.4743 172.499 34.2072Z" fill="black"/>
<path d="M172.457 35.8984C171.332 35.8984 171.346 37.2091 172.286 37.5615C173.226 37.9139 173.625 36.9273 173.283 36.3212C173.198 36.1816 173.076 36.0681 172.931 35.9934C172.785 35.9187 172.62 35.8858 172.457 35.8984Z" fill="black"/>
<path d="M130.044 18.3227C129.958 18.2432 129.848 18.1937 129.731 18.1817C129.629 18.1494 129.519 18.1494 129.417 18.1817C128.707 18.0556 127.975 18.1815 127.35 18.5374C126.724 18.8932 126.246 19.4561 125.999 20.1268C125.87 20.4662 125.81 20.8276 125.824 21.1901C125.837 21.5525 125.923 21.9088 126.077 22.238C126.23 22.5672 126.449 22.8629 126.719 23.1078C126.989 23.3527 127.306 23.5419 127.651 23.6645C128.018 23.8361 128.418 23.9282 128.824 23.9345C129.23 23.9408 129.632 23.8612 130.004 23.7011C130.376 23.5409 130.71 23.3039 130.982 23.0059C131.254 22.7079 131.459 22.3558 131.582 21.9731C131.807 21.2831 131.776 20.5363 131.494 19.8671C131.212 19.1979 130.698 18.6502 130.044 18.3227ZM130.201 21.5503C130.131 21.7588 130.014 21.9485 129.858 22.1042C129.702 22.2599 129.511 22.3773 129.3 22.4471C129.09 22.5169 128.866 22.5372 128.647 22.5063C128.427 22.4754 128.218 22.3942 128.036 22.2691C127.723 22.1137 127.478 21.8496 127.35 21.5272C127.221 21.2047 127.217 20.8467 127.338 20.5214C127.494 20.1401 127.786 19.8289 128.159 19.647C128.532 19.4651 128.96 19.4252 129.36 19.5348C129.734 19.7048 130.029 20.0089 130.185 20.3856C130.341 20.7624 130.346 21.1837 130.201 21.5644V21.5503Z" fill="black"/>
<path d="M193.378 22.4524C194.619 21.4302 195.437 19.9921 195.676 18.412C195.915 16.8319 195.558 15.22 194.674 13.883C192.865 11.1346 189.718 11.487 187.34 13.0092C184.833 9.79562 180.988 7.21634 177.071 9.93657C176.094 10.6051 175.366 11.5725 174.998 12.6902C174.63 13.8079 174.643 15.0142 175.034 16.124C171.873 16.124 169.509 19.2812 169.01 22.3115C168.341 26.4552 171.773 27.4559 175.006 27.0049C171.559 34.5314 186.912 39.4644 188.436 31.2333C194.318 34.6723 200.442 25.37 193.378 22.4524ZM188.365 29.4996C188.294 29.4272 188.206 29.3739 188.109 29.3446H187.938H187.738C187.62 29.3613 187.509 29.4077 187.414 29.4792C187.319 29.5508 187.245 29.6451 187.197 29.7533C187.16 29.8631 187.16 29.9818 187.197 30.0916C187.026 37.9845 171.972 33.291 177.114 26.3989C177.498 25.8915 176.857 25.2149 176.302 25.37C166.817 28.1889 170.762 16.265 176.16 17.759C176.312 17.7996 176.473 17.7891 176.618 17.7292C176.764 17.6694 176.885 17.5635 176.963 17.4282C177.041 17.2929 177.072 17.1357 177.05 16.9814C177.029 16.827 176.956 16.6841 176.843 16.575C175.277 14.5877 176.544 11.6279 178.737 10.6695C182.084 9.26004 184.819 11.8816 186.613 14.3904C186.67 14.4823 186.747 14.5604 186.839 14.6189C186.93 14.6774 187.034 14.7148 187.142 14.7284C187.25 14.7419 187.359 14.7312 187.463 14.6971C187.566 14.663 187.66 14.6064 187.738 14.5314C190.017 12.7695 193.435 12.8541 194.247 16.1381C194.506 17.2841 194.396 18.4813 193.934 19.5628C193.472 20.6442 192.68 21.5559 191.669 22.1705C191.551 22.2446 191.457 22.3507 191.399 22.4762C191.34 22.6016 191.32 22.7411 191.339 22.878C191.359 23.0148 191.418 23.1431 191.509 23.2476C191.6 23.3521 191.72 23.4284 191.854 23.4672C199.061 25.37 193.051 33.5447 188.365 29.4433V29.4996Z" fill="black"/>
<path d="M183.352 19.2669C182.613 19.3164 181.917 19.6293 181.393 20.1476C180.87 20.6659 180.553 21.3545 180.503 22.0858C180.474 22.1919 180.474 22.3039 180.503 22.41C180.472 22.5207 180.472 22.6376 180.503 22.7482C180.659 23.4601 181.069 24.0927 181.657 24.5301C182.246 24.9675 182.974 25.1806 183.708 25.1302C184.115 25.0995 184.511 24.9824 184.869 24.787C185.226 24.5915 185.537 24.3222 185.78 23.9973C186.023 23.6725 186.193 23.2997 186.278 22.9042C186.363 22.5087 186.36 22.0998 186.271 21.7053C186.199 21.0035 185.854 20.357 185.31 19.9021C184.765 19.4472 184.063 19.2194 183.352 19.2669ZM183.808 23.6644C183.388 23.7225 182.962 23.6189 182.617 23.3749C182.273 23.131 182.036 22.7654 181.956 22.3536C181.948 21.9507 182.088 21.5586 182.35 21.2501C182.612 20.9416 182.978 20.7377 183.38 20.6764C183.552 20.6391 183.73 20.6357 183.904 20.6666C184.077 20.6974 184.242 20.7618 184.391 20.8561C184.539 20.9504 184.667 21.0727 184.767 21.216C184.867 21.3593 184.938 21.5207 184.975 21.6912C185.052 21.8963 185.081 22.1157 185.062 22.3335C185.042 22.5513 184.974 22.7622 184.863 22.9509C184.751 23.1395 184.598 23.3014 184.416 23.4248C184.234 23.5481 184.026 23.63 183.808 23.6644Z" fill="black"/>
</svg>
